<svg width="33" height="33" viewBox="0 0 33 33" fill="none" xmlns="http://www.w3.org/2000/svg">
<g clip-path="url(#clip0_2236_21007)">
<rect x="2.5" y="2.5" width="28" height="28" rx="7" fill="white"/>
<path d="M26.5211 12.0054H24.7031V13.7609H26.5211V12.0054Z" fill="#0E283B"/>
<path d="M26.5211 10.2532H24.7031V12.006H26.5211V10.2532Z" fill="#0E283B"/>
<path d="M24.7021 13.7642H22.8813V15.5169H24.7021V13.7642Z" fill="#0E283B"/>
<path d="M24.7021 12.0054H22.8813V13.7609H24.7021V12.0054Z" fill="#30D158"/>
<path d="M24.7021 10.2532H22.8813V12.006H24.7021V10.2532Z" fill="#30D158"/>
<path d="M24.7021 8.50049H22.8813V10.2533H24.7021V8.50049Z" fill="#0E283B"/>
<path d="M22.8815 15.5168H21.0635V17.2723H22.8815V15.5168Z" fill="#0E283B"/>
<path d="M22.8815 13.7642H21.0635V15.5169H22.8815V13.7642Z" fill="#30D158"/>
<path d="M22.8815 12.0054H21.0635V13.7609H22.8815V12.0054Z" fill="#30D158"/>
<path d="M22.8815 10.2532H21.0635V12.006H22.8815V10.2532Z" fill="#0E283B"/>
<path d="M21.0614 17.2727H19.2407V19.0255H21.0614V17.2727Z" fill="#0E283B"/>
<path d="M21.0614 15.5168H19.2407V17.2723H21.0614V15.5168Z" fill="#30D158"/>
<path d="M21.0614 13.7644H19.2407V15.5172H21.0614V13.7644Z" fill="#30D158"/>
<path d="M21.0614 12.0056H19.2407V13.7611H21.0614V12.0056Z" fill="#0E283B"/>
<path d="M19.2404 19.0251H17.4224V20.7779H19.2404V19.0251Z" fill="#0E283B"/>
<path d="M19.2404 17.2727H17.4224V19.0255H19.2404V17.2727Z" fill="#30D158"/>
<path d="M19.2404 15.5168H17.4224V17.2723H19.2404V15.5168Z" fill="#30D158"/>
<path d="M19.2404 13.7644H17.4224V15.5172H19.2404V13.7644Z" fill="#0E283B"/>
<path d="M17.4228 20.7805H15.6021V22.536H17.4228V20.7805Z" fill="#0E283B"/>
<path d="M17.4228 19.0251H15.6021V20.7779H17.4228V19.0251Z" fill="#30D158"/>
<path d="M17.4228 17.2727H15.6021V19.0255H17.4228V17.2727Z" fill="#30D158"/>
<path d="M17.4228 15.5168H15.6021V17.2723H17.4228V15.5168Z" fill="#0E283B"/>
<path d="M15.5993 22.5364H13.7812V24.2892H15.5993V22.5364Z" fill="#0E283B"/>
<path d="M15.5993 20.7805H13.7812V22.536H15.5993V20.7805Z" fill="#30D158"/>
<path d="M15.5993 19.0251H13.7812V20.7779H15.5993V19.0251Z" fill="#30D158"/>
<path d="M15.5993 17.2727H13.7812V19.0255H15.5993V17.2727Z" fill="#0E283B"/>
<path d="M13.7802 22.5364H11.9595V24.2892H13.7802V22.5364Z" fill="#0E283B"/>
<path d="M13.7802 20.7808H11.9595V22.5363H13.7802V20.7808Z" fill="#30D158"/>
<path d="M13.7802 19.0251H11.9595V20.7779H13.7802V19.0251Z" fill="#30D158"/>
<path d="M13.7802 17.2727H11.9595V19.0255H13.7802V17.2727Z" fill="#0E283B"/>
<path d="M11.9606 20.7805H10.1426V22.536H11.9606V20.7805Z" fill="#0E283B"/>
<path d="M11.9606 19.0251H10.1426V20.7779H11.9606V19.0251Z" fill="#30D158"/>
<path d="M11.9606 17.2727H10.1426V19.0255H11.9606V17.2727Z" fill="#30D158"/>
<path d="M11.9606 15.5168H10.1426V17.2723H11.9606V15.5168Z" fill="#0E283B"/>
<path d="M10.1396 19.0251H8.31885V20.7779H10.1396V19.0251Z" fill="#0E283B"/>
<path d="M10.1396 17.2727H8.31885V19.0255H10.1396V17.2727Z" fill="#30D158"/>
<path d="M10.1396 15.5168H8.31885V17.2723H10.1396V15.5168Z" fill="#30D158"/>
<path d="M10.1396 13.7642H8.31885V15.5169H10.1396V13.7642Z" fill="#0E283B"/>
<path d="M8.31849 17.2727H6.50049V19.0255H8.31849V17.2727Z" fill="#0E283B"/>
<path d="M8.31849 15.5168H6.50049V17.2723H8.31849V15.5168Z" fill="#0E283B"/>
<path d="M6.5 6.5V3.5V0.499999H3.5V3.5H0.5V6.5H3.5H6.5Z" fill="#3A3A3C"/>
<path d="M6.50488 3.5V6.5H3.50488V9.5H0.504883V6.5V3.5H3.50488V0.499999H6.50488V3.5Z" fill="#3A3A3C"/>
<path d="M6.50488 3.5V0.499999H9.50029V3.5H6.50488Z" fill="#3A3A3C"/>
<path d="M6.5 26.5V29.5V32.5H3.5V29.5H0.5V26.5H3.5H6.5Z" fill="#3A3A3C"/>
<path d="M6.50488 29.5V26.5H3.50488V23.5H0.504883V26.5V29.5H3.50488V32.5H6.50488V29.5Z" fill="#3A3A3C"/>
<path d="M6.50488 29.5V32.5H9.50029V29.5H6.50488Z" fill="#3A3A3C"/>
<path d="M26.5 6.5V3.5V0.499999H29.5V3.5H32.5V6.5H29.5H26.5Z" fill="#3A3A3C"/>
<path d="M26.4951 3.5V6.5H29.4951V9.5H32.4951V6.5V3.5H29.4951V0.499999H26.4951V3.5Z" fill="#3A3A3C"/>
<path d="M26.4951 3.5V0.499999H23.4997V3.5H26.4951Z" fill="#3A3A3C"/>
<path d="M26.5 26.5V29.5V32.5H29.5V29.5H32.5V26.5H29.5H26.5Z" fill="#3A3A3C"/>
<path d="M26.4951 29.5V26.5H29.4951V23.5H32.4951V26.5V29.5H29.4951V32.5H26.4951V29.5Z" fill="#3A3A3C"/>
<path d="M26.4951 29.5V32.5H23.4997V29.5H26.4951Z" fill="#3A3A3C"/>
<rect x="6.5" y="0.5" width="17" height="3" fill="#3A3A3C"/>
<rect x="6.5" y="29.5" width="17" height="3" fill="#3A3A3C"/>
<rect width="14" height="3" transform="matrix(-1.9233e-06 1 -1 -9.93441e-10 3.5 9.5)" fill="#3A3A3C"/>
<rect width="14" height="3" transform="matrix(-1.9233e-06 1 -1 -9.9344e-10 32.5 9.5)" fill="#3A3A3C"/>
</g>
<defs>
<clipPath id="clip0_2236_21007">
<rect width="32" height="32" fill="white" transform="translate(0.5 0.5)"/>
</clipPath>
</defs>
</svg>
