<svg width="20" height="15" viewBox="0 0 20 15" fill="none" xmlns="http://www.w3.org/2000/svg">
<path d="M20.0004 11.6038H18.9473V12.6569H20.0004V11.6038Z" fill="#1B0003"/>
<path d="M20.0004 10.5508H18.9473V11.604H20.0004V10.5508Z" fill="#1B0003"/>
<path d="M20.0004 9.5H18.9473V10.5532H20.0004V9.5Z" fill="#1B0003"/>
<path d="M20.0004 8.44531H18.9473V9.49849H20.0004V8.44531Z" fill="#1B0003"/>
<path d="M20.0004 7.39478H18.9473V8.44796H20.0004V7.39478Z" fill="#1B0003"/>
<path d="M20.0004 6.34009H18.9473V7.39327H20.0004V6.34009Z" fill="#1B0003"/>
<path d="M20.0004 5.28711H18.9473V6.34029H20.0004V5.28711Z" fill="#1B0003"/>
<path d="M20.0004 4.23633H18.9473V5.28951H20.0004V4.23633Z" fill="#1B0003"/>
<path d="M20.0004 3.18359H18.9473V4.23678H20.0004V3.18359Z" fill="#1B0003"/>
<path d="M20.0004 2.12891H18.9473V3.18209H20.0004V2.12891Z" fill="#1B0003"/>
<path d="M20.0004 1.07812H18.9473V2.13131H20.0004V1.07812Z" fill="#1B0003"/>
<path d="M20.0004 0.0253906H18.9473V1.07857H20.0004V0.0253906Z" fill="#1B0003"/>
<path d="M18.9467 12.6562H17.8936V13.7094H18.9467V12.6562Z" fill="#1B0003"/>
<path d="M18.9467 11.6038H17.8936V12.6569H18.9467V11.6038Z" fill="#DB6D12"/>
<path d="M18.9467 10.5508H17.8936V11.604H18.9467V10.5508Z" fill="#D84B13"/>
<path d="M18.9467 9.5H17.8936V10.5532H18.9467V9.5Z" fill="#DB6D12"/>
<path d="M18.9467 8.44531H17.8936V9.49849H18.9467V8.44531Z" fill="#D84B13"/>
<path d="M18.9467 7.39478H17.8936V8.44796H18.9467V7.39478Z" fill="#DB6D12"/>
<path d="M18.9467 6.34009H17.8936V7.39327H18.9467V6.34009Z" fill="#DB6D12"/>
<path d="M18.9467 5.28711H17.8936V6.34029H18.9467V5.28711Z" fill="#DB6D12"/>
<path d="M18.9467 4.23633H17.8936V5.28951H18.9467V4.23633Z" fill="#DB6D12"/>
<path d="M18.9467 3.18359H17.8936V4.23678H18.9467V3.18359Z" fill="#DB6D12"/>
<path d="M18.9467 2.12891H17.8936V3.18209H18.9467V2.12891Z" fill="#D84B13"/>
<path d="M18.9467 1.07812H17.8936V2.13131H18.9467V1.07812Z" fill="#F7C45E"/>
<path d="M18.9467 0.0253906H17.8936V1.07857H18.9467V0.0253906Z" fill="#1B0003"/>
<path d="M17.896 13.709H16.8428V14.7622H17.896V13.709Z" fill="#1B0003"/>
<path d="M17.896 12.6562H16.8428V13.7094H17.896V12.6562Z" fill="#DB6D12"/>
<path d="M17.896 11.6038H16.8428V12.6569H17.896V11.6038Z" fill="#D84B13"/>
<path d="M17.896 10.5508H16.8428V11.604H17.896V10.5508Z" fill="#DB6D12"/>
<path d="M17.896 9.5H16.8428V10.5532H17.896V9.5Z" fill="#D84B13"/>
<path d="M17.896 8.44531H16.8428V9.49849H17.896V8.44531Z" fill="#DB6D12"/>
<path d="M17.896 7.39478H16.8428V8.44796H17.896V7.39478Z" fill="#DB6D12"/>
<path d="M17.896 6.34009H16.8428V7.39327H17.896V6.34009Z" fill="#DB6D12"/>
<path d="M17.896 5.28711H16.8428V6.34029H17.896V5.28711Z" fill="#DB6D12"/>
<path d="M17.896 4.23633H16.8428V5.28951H17.896V4.23633Z" fill="#D84B13"/>
<path d="M17.896 3.18359H16.8428V4.23678H17.896V3.18359Z" fill="#F7C45E"/>
<path d="M17.896 2.12891H16.8428V3.18209H17.896V2.12891Z" fill="#F7C45E"/>
<path d="M17.896 1.07812H16.8428V2.13131H17.896V1.07812Z" fill="#1B0003"/>
<path d="M16.8422 13.709H15.7891V14.7622H16.8422V13.709Z" fill="#1B0003"/>
<path d="M16.8422 12.6562H15.7891V13.7094H16.8422V12.6562Z" fill="#D84B13"/>
<path d="M16.8422 11.6038H15.7891V12.6569H16.8422V11.6038Z" fill="#DB6D12"/>
<path d="M16.8422 10.5508H15.7891V11.604H16.8422V10.5508Z" fill="#D84B13"/>
<path d="M16.8422 9.5H15.7891V10.5532H16.8422V9.5Z" fill="#DB6D12"/>
<path d="M16.8422 8.44531H15.7891V9.49849H16.8422V8.44531Z" fill="#DB6D12"/>
<path d="M16.8422 7.39478H15.7891V8.44796H16.8422V7.39478Z" fill="#DB6D12"/>
<path d="M16.8422 6.34009H15.7891V7.39327H16.8422V6.34009Z" fill="#D84B13"/>
<path d="M16.8422 5.28711H15.7891V6.34029H16.8422V5.28711Z" fill="#D84B13"/>
<path d="M16.8422 4.23633H15.7891V5.28951H16.8422V4.23633Z" fill="#F7C45E"/>
<path d="M16.8422 3.18359H15.7891V4.23678H16.8422V3.18359Z" fill="#F7C45E"/>
<path d="M16.8422 2.12891H15.7891V3.18209H16.8422V2.12891Z" fill="#1B0003"/>
<path d="M15.7895 13.709H14.7363V14.7622H15.7895V13.709Z" fill="#1B0003"/>
<path d="M15.7895 12.6562H14.7363V13.7094H15.7895V12.6562Z" fill="#DB6D12"/>
<path d="M15.7895 11.6038H14.7363V12.6569H15.7895V11.6038Z" fill="#D84B13"/>
<path d="M15.7895 10.5508H14.7363V11.604H15.7895V10.5508Z" fill="#D84B13"/>
<path d="M15.7895 9.5H14.7363V10.5532H15.7895V9.5Z" fill="#D84B13"/>
<path d="M15.7895 8.44531H14.7363V9.49849H15.7895V8.44531Z" fill="#D84B13"/>
<path d="M15.7895 7.39478H14.7363V8.44796H15.7895V7.39478Z" fill="#D84B13"/>
<path d="M15.7895 6.34009H14.7363V7.39327H15.7895V6.34009Z" fill="#D84B13"/>
<path d="M15.7895 5.28711H14.7363V6.34029H15.7895V5.28711Z" fill="#F7C45E"/>
<path d="M15.7895 4.23633H14.7363V5.28951H15.7895V4.23633Z" fill="#F7C45E"/>
<path d="M15.7895 3.18359H14.7363V4.23678H15.7895V3.18359Z" fill="#1B0003"/>
<path d="M14.7378 13.709H13.6846V14.7622H14.7378V13.709Z" fill="#1B0003"/>
<path d="M14.7378 12.6562H13.6846V13.7094H14.7378V12.6562Z" fill="#D84B13"/>
<path d="M14.7378 11.6038H13.6846V12.6569H14.7378V11.6038Z" fill="#DB6D12"/>
<path d="M14.7378 10.5508H13.6846V11.604H14.7378V10.5508Z" fill="#D84B13"/>
<path d="M14.7378 9.5H13.6846V10.5532H14.7378V9.5Z" fill="#F7C45E"/>
<path d="M14.7378 8.44531H13.6846V9.49849H14.7378V8.44531Z" fill="#F7C45E"/>
<path d="M14.7378 7.39478H13.6846V8.44796H14.7378V7.39478Z" fill="#F7C45E"/>
<path d="M14.7378 6.34009H13.6846V7.39327H14.7378V6.34009Z" fill="#F7C45E"/>
<path d="M14.7378 5.28711H13.6846V6.34029H14.7378V5.28711Z" fill="#F7C45E"/>
<path d="M14.7378 4.23633H13.6846V5.28951H14.7378V4.23633Z" fill="#1B0003"/>
<path d="M13.684 13.709H12.6309V14.7622H13.684V13.709Z" fill="#1B0003"/>
<path d="M13.684 12.6562H12.6309V13.7094H13.684V12.6562Z" fill="#DB6D12"/>
<path d="M13.684 11.6035H12.6309V12.6567H13.684V11.6035Z" fill="#D84B13"/>
<path d="M13.684 10.5508H12.6309V11.604H13.684V10.5508Z" fill="#F7C45E"/>
<path d="M13.684 9.5H12.6309V10.5532H13.684V9.5Z" fill="#F7C45E"/>
<path d="M13.684 8.44531H12.6309V9.49849H13.684V8.44531Z" fill="#F7C45E"/>
<path d="M13.684 7.39453H12.6309V8.44771H13.684V7.39453Z" fill="#F7C45E"/>
<path d="M13.684 6.33984H12.6309V7.39303H13.684V6.33984Z" fill="#F7C45E"/>
<path d="M13.684 5.28711H12.6309V6.34029H13.684V5.28711Z" fill="#F7C45E"/>
<path d="M13.684 4.23633H12.6309V5.28951H13.684V4.23633Z" fill="#F7C45E"/>
<path d="M13.684 3.18359H12.6309V4.23678H13.684V3.18359Z" fill="#1B0003"/>
<path d="M12.6313 13.709H11.5781V14.7622H12.6313V13.709Z" fill="#1B0003"/>
<path d="M12.6313 12.6562H11.5781V13.7094H12.6313V12.6562Z" fill="#D84B13"/>
<path d="M12.6313 11.6038H11.5781V12.6569H12.6313V11.6038Z" fill="#F7C45E"/>
<path d="M12.6313 10.5508H11.5781V11.604H12.6313V10.5508Z" fill="#F7C45E"/>
<path d="M12.6313 9.5H11.5781V10.5532H12.6313V9.5Z" fill="#F7C45E"/>
<path d="M12.6313 8.44531H11.5781V9.49849H12.6313V8.44531Z" fill="#1B0003"/>
<path d="M12.6313 7.39478H11.5781V8.44796H12.6313V7.39478Z" fill="#1B0003"/>
<path d="M12.6313 6.34009H11.5781V7.39327H12.6313V6.34009Z" fill="#1B0003"/>
<path d="M12.6313 5.28711H11.5781V6.34029H12.6313V5.28711Z" fill="#F7C45E"/>
<path d="M12.6313 4.23633H11.5781V5.28951H12.6313V4.23633Z" fill="#F7C45E"/>
<path d="M12.6313 3.18359H11.5781V4.23678H12.6313V3.18359Z" fill="#F7C45E"/>
<path d="M12.6313 2.12891H11.5781V3.18209H12.6313V2.12891Z" fill="#1B0003"/>
<path d="M11.5795 13.709H10.5264V14.7622H11.5795V13.709Z" fill="#1B0003"/>
<path d="M11.5795 12.6562H10.5264V13.7094H11.5795V12.6562Z" fill="#F7C45E"/>
<path d="M11.5795 11.6035H10.5264V12.6567H11.5795V11.6035Z" fill="#F7C45E"/>
<path d="M11.5795 10.5508H10.5264V11.604H11.5795V10.5508Z" fill="#F7C45E"/>
<path d="M11.5795 9.5H10.5264V10.5532H11.5795V9.5Z" fill="#1B0003"/>
<path d="M11.5795 8.44531H10.5264V9.49849H11.5795V8.44531Z" fill="#B6294C"/>
<path d="M11.5795 7.39453H10.5264V8.44771H11.5795V7.39453Z" fill="#B6294C"/>
<path d="M11.5795 6.33984H10.5264V7.39303H11.5795V6.33984Z" fill="#DB1943"/>
<path d="M11.5795 5.28711H10.5264V6.34029H11.5795V5.28711Z" fill="#1B0003"/>
<path d="M11.5795 4.23633H10.5264V5.28951H11.5795V4.23633Z" fill="#F7C45E"/>
<path d="M11.5795 3.18359H10.5264V4.23678H11.5795V3.18359Z" fill="#F7C45E"/>
<path d="M11.5795 2.12891H10.5264V3.18209H11.5795V2.12891Z" fill="#F7C45E"/>
<path d="M11.5795 1.07812H10.5264V2.13131H11.5795V1.07812Z" fill="#1B0003"/>
<path d="M10.5268 13.709H9.47363V14.7622H10.5268V13.709Z" fill="#1B0003"/>
<path d="M10.5268 12.6562H9.47363V13.7094H10.5268V12.6562Z" fill="#F7C45E"/>
<path d="M10.5268 11.6038H9.47363V12.6569H10.5268V11.6038Z" fill="#F7C45E"/>
<path d="M10.5268 10.5508H9.47363V11.604H10.5268V10.5508Z" fill="#F7C45E"/>
<path d="M10.5268 9.5H9.47363V10.5532H10.5268V9.5Z" fill="#1B0003"/>
<path d="M10.5268 8.44531H9.47363V9.49849H10.5268V8.44531Z" fill="#B6294C"/>
<path d="M10.5268 7.39478H9.47363V8.44796H10.5268V7.39478Z" fill="#DB1943"/>
<path d="M10.5268 6.34009H9.47363V7.39327H10.5268V6.34009Z" fill="#EB3824"/>
<path d="M10.5268 5.28711H9.47363V6.34029H10.5268V5.28711Z" fill="#1B0003"/>
<path d="M10.5268 4.23633H9.47363V5.28951H10.5268V4.23633Z" fill="#F7C45E"/>
<path d="M10.5268 3.18359H9.47363V4.23678H10.5268V3.18359Z" fill="#F7C45E"/>
<path d="M10.5268 2.12891H9.47363V3.18209H10.5268V2.12891Z" fill="#F7C45E"/>
<path d="M10.5268 1.07812H9.47363V2.13131H10.5268V1.07812Z" fill="#F9F2D4"/>
<path d="M10.5268 0.0253906H9.47363V1.07857H10.5268V0.0253906Z" fill="#1B0003"/>
<path d="M9.4731 13.709H8.41992V14.7622H9.4731V13.709Z" fill="#1B0003"/>
<path d="M9.4731 12.6562H8.41992V13.7094H9.4731V12.6562Z" fill="#F7C45E"/>
<path d="M9.4731 11.6035H8.41992V12.6567H9.4731V11.6035Z" fill="#F7C45E"/>
<path d="M9.4731 10.5508H8.41992V11.604H9.4731V10.5508Z" fill="#F7C45E"/>
<path d="M9.4731 9.5H8.41992V10.5532H9.4731V9.5Z" fill="#1B0003"/>
<path d="M9.4731 8.44531H8.41992V9.49849H9.4731V8.44531Z" fill="#DB1943"/>
<path d="M9.4731 7.39453H8.41992V8.44771H9.4731V7.39453Z" fill="#EB3824"/>
<path d="M9.4731 6.33984H8.41992V7.39303H9.4731V6.33984Z" fill="#F4B9B8"/>
<path d="M9.4731 5.28711H8.41992V6.34029H9.4731V5.28711Z" fill="#1B0003"/>
<path d="M9.4731 4.23633H8.41992V5.28951H9.4731V4.23633Z" fill="#F7C45E"/>
<path d="M9.4731 3.18359H8.41992V4.23678H9.4731V3.18359Z" fill="#F7C45E"/>
<path d="M9.4731 2.12891H8.41992V3.18209H9.4731V2.12891Z" fill="#F9F2D4"/>
<path d="M9.4731 1.07812H8.41992V2.13131H9.4731V1.07812Z" fill="#1B0003"/>
<path d="M8.42232 13.709H7.36914V14.7622H8.42232V13.709Z" fill="#1B0003"/>
<path d="M8.42232 12.6562H7.36914V13.7094H8.42232V12.6562Z" fill="#DB6D12"/>
<path d="M8.42232 11.6035H7.36914V12.6567H8.42232V11.6035Z" fill="#F7C45E"/>
<path d="M8.42232 10.5508H7.36914V11.604H8.42232V10.5508Z" fill="#F7C45E"/>
<path d="M8.42232 9.5H7.36914V10.5532H8.42232V9.5Z" fill="#F7C45E"/>
<path d="M8.42232 8.44531H7.36914V9.49849H8.42232V8.44531Z" fill="#1B0003"/>
<path d="M8.42232 7.39453H7.36914V8.44771H8.42232V7.39453Z" fill="#1B0003"/>
<path d="M8.42232 6.33984H7.36914V7.39303H8.42232V6.33984Z" fill="#1B0003"/>
<path d="M8.42232 5.28711H7.36914V6.34029H8.42232V5.28711Z" fill="#F7C45E"/>
<path d="M8.42232 4.23633H7.36914V5.28951H8.42232V4.23633Z" fill="#F7C45E"/>
<path d="M8.42232 3.18359H7.36914V4.23678H8.42232V3.18359Z" fill="#F9F2D4"/>
<path d="M8.42232 2.12891H7.36914V3.18209H8.42232V2.12891Z" fill="#1B0003"/>
<path d="M7.36861 13.709H6.31543V14.7622H7.36861V13.709Z" fill="#1B0003"/>
<path d="M7.36861 12.6562H6.31543V13.7094H7.36861V12.6562Z" fill="#DB6D12"/>
<path d="M7.36861 11.6035H6.31543V12.6567H7.36861V11.6035Z" fill="#DB6D12"/>
<path d="M7.36861 10.5508H6.31543V11.604H7.36861V10.5508Z" fill="#F7C45E"/>
<path d="M7.36861 9.5H6.31543V10.5532H7.36861V9.5Z" fill="#F7C45E"/>
<path d="M7.36861 8.44531H6.31543V9.49849H7.36861V8.44531Z" fill="#F7C45E"/>
<path d="M7.36861 7.39453H6.31543V8.44771H7.36861V7.39453Z" fill="#F7C45E"/>
<path d="M7.36861 6.33984H6.31543V7.39303H7.36861V6.33984Z" fill="#F7C45E"/>
<path d="M7.36861 5.28711H6.31543V6.34029H7.36861V5.28711Z" fill="#F7C45E"/>
<path d="M7.36861 4.23633H6.31543V5.28951H7.36861V4.23633Z" fill="#F9F2D4"/>
<path d="M7.36861 3.18359H6.31543V4.23678H7.36861V3.18359Z" fill="#1B0003"/>
<path d="M6.31588 13.709H5.2627V14.7622H6.31588V13.709Z" fill="#1B0003"/>
<path d="M6.31588 12.6562H5.2627V13.7094H6.31588V12.6562Z" fill="#DB6D12"/>
<path d="M6.31588 11.6035H5.2627V12.6567H6.31588V11.6035Z" fill="#DB6D12"/>
<path d="M6.31588 10.5508H5.2627V11.604H6.31588V10.5508Z" fill="#DB6D12"/>
<path d="M6.31588 9.5H5.2627V10.5532H6.31588V9.5Z" fill="#F7C45E"/>
<path d="M6.31588 8.44531H5.2627V9.49849H6.31588V8.44531Z" fill="#F7C45E"/>
<path d="M6.31588 7.39453H5.2627V8.44771H6.31588V7.39453Z" fill="#F7C45E"/>
<path d="M6.31588 6.33984H5.2627V7.39303H6.31588V6.33984Z" fill="#F7C45E"/>
<path d="M6.31588 5.28711H5.2627V6.34029H6.31588V5.28711Z" fill="#F7C45E"/>
<path d="M6.31588 4.23633H5.2627V5.28951H6.31588V4.23633Z" fill="#1B0003"/>
<path d="M5.26412 13.709H4.21094V14.7622H5.26412V13.709Z" fill="#1B0003"/>
<path d="M5.26412 12.6562H4.21094V13.7094H5.26412V12.6562Z" fill="#DB6D12"/>
<path d="M5.26412 11.6035H4.21094V12.6567H5.26412V11.6035Z" fill="#DB6D12"/>
<path d="M5.26412 10.5508H4.21094V11.604H5.26412V10.5508Z" fill="#DB6D12"/>
<path d="M5.26412 9.5H4.21094V10.5532H5.26412V9.5Z" fill="#DB6D12"/>
<path d="M5.26412 8.44531H4.21094V9.49849H5.26412V8.44531Z" fill="#DB6D12"/>
<path d="M5.26412 7.39453H4.21094V8.44771H5.26412V7.39453Z" fill="#DB6D12"/>
<path d="M5.26412 6.33984H4.21094V7.39303H5.26412V6.33984Z" fill="#DB6D12"/>
<path d="M5.26412 5.28711H4.21094V6.34029H5.26412V5.28711Z" fill="#D84B13"/>
<path d="M5.26412 4.23633H4.21094V5.28951H5.26412V4.23633Z" fill="#F7C45E"/>
<path d="M5.26412 3.18359H4.21094V4.23678H5.26412V3.18359Z" fill="#1B0003"/>
<path d="M4.21139 13.709H3.1582V14.7622H4.21139V13.709Z" fill="#1B0003"/>
<path d="M4.21139 12.6562H3.1582V13.7094H4.21139V12.6562Z" fill="#DB6D12"/>
<path d="M4.21139 11.6035H3.1582V12.6567H4.21139V11.6035Z" fill="#DB6D12"/>
<path d="M4.21139 10.5508H3.1582V11.604H4.21139V10.5508Z" fill="#DB6D12"/>
<path d="M4.21139 9.5H3.1582V10.5532H4.21139V9.5Z" fill="#DB6D12"/>
<path d="M4.21139 8.44531H3.1582V9.49849H4.21139V8.44531Z" fill="#DB6D12"/>
<path d="M4.21139 7.39453H3.1582V8.44771H4.21139V7.39453Z" fill="#DB6D12"/>
<path d="M4.21139 6.33984H3.1582V7.39303H4.21139V6.33984Z" fill="#DB6D12"/>
<path d="M4.21139 5.28711H3.1582V6.34029H4.21139V5.28711Z" fill="#DB6D12"/>
<path d="M4.21139 4.23633H3.1582V5.28951H4.21139V4.23633Z" fill="#D84B13"/>
<path d="M4.21139 3.18359H3.1582V4.23678H4.21139V3.18359Z" fill="#F7C45E"/>
<path d="M4.21139 2.12891H3.1582V3.18209H4.21139V2.12891Z" fill="#1B0003"/>
<path d="M3.15865 13.709H2.10547V14.7622H3.15865V13.709Z" fill="#1B0003"/>
<path d="M3.15865 12.6562H2.10547V13.7094H3.15865V12.6562Z" fill="#DB6D12"/>
<path d="M3.15865 11.6035H2.10547V12.6567H3.15865V11.6035Z" fill="#DB6D12"/>
<path d="M3.15865 10.5508H2.10547V11.604H3.15865V10.5508Z" fill="#DB6D12"/>
<path d="M3.15865 9.5H2.10547V10.5532H3.15865V9.5Z" fill="#DB6D12"/>
<path d="M3.15865 8.44531H2.10547V9.49849H3.15865V8.44531Z" fill="#DB6D12"/>
<path d="M3.15865 7.39453H2.10547V8.44771H3.15865V7.39453Z" fill="#DB6D12"/>
<path d="M3.15865 6.33984H2.10547V7.39303H3.15865V6.33984Z" fill="#DB6D12"/>
<path d="M3.15865 5.28711H2.10547V6.34029H3.15865V5.28711Z" fill="#DB6D12"/>
<path d="M3.15865 4.23633H2.10547V5.28951H3.15865V4.23633Z" fill="#DB6D12"/>
<path d="M3.15865 3.18359H2.10547V4.23678H3.15865V3.18359Z" fill="#D84B13"/>
<path d="M3.15865 2.12891H2.10547V3.18209H3.15865V2.12891Z" fill="#F7C45E"/>
<path d="M3.15865 1.07812H2.10547V2.13131H3.15865V1.07812Z" fill="#1B0003"/>
<path d="M2.10592 12.6562H1.05273V13.7094H2.10592V12.6562Z" fill="#1B0003"/>
<path d="M2.10592 11.6038H1.05273V12.6569H2.10592V11.6038Z" fill="#DB6D12"/>
<path d="M2.10592 10.5508H1.05273V11.604H2.10592V10.5508Z" fill="#DB6D12"/>
<path d="M2.10592 9.5H1.05273V10.5532H2.10592V9.5Z" fill="#DB6D12"/>
<path d="M2.10592 8.44531H1.05273V9.49849H2.10592V8.44531Z" fill="#DB6D12"/>
<path d="M2.10592 7.39478H1.05273V8.44796H2.10592V7.39478Z" fill="#DB6D12"/>
<path d="M2.10592 6.34009H1.05273V7.39327H2.10592V6.34009Z" fill="#DB6D12"/>
<path d="M2.10592 5.28711H1.05273V6.34029H2.10592V5.28711Z" fill="#DB6D12"/>
<path d="M2.10592 4.23633H1.05273V5.28951H2.10592V4.23633Z" fill="#DB6D12"/>
<path d="M2.10592 3.18359H1.05273V4.23678H2.10592V3.18359Z" fill="#DB6D12"/>
<path d="M2.10592 2.12891H1.05273V3.18209H2.10592V2.12891Z" fill="#D84B13"/>
<path d="M2.10592 1.07812H1.05273V2.13131H2.10592V1.07812Z" fill="#F7C45E"/>
<path d="M2.10592 0.0253906H1.05273V1.07857H2.10592V0.0253906Z" fill="#1B0003"/>
<path d="M1.05318 11.6038H0V12.6569H1.05318V11.6038Z" fill="#1B0003"/>
<path d="M1.05318 10.5508H0V11.604H1.05318V10.5508Z" fill="#1B0003"/>
<path d="M1.05318 9.5H0V10.5532H1.05318V9.5Z" fill="#1B0003"/>
<path d="M1.05318 8.44531H0V9.49849H1.05318V8.44531Z" fill="#1B0003"/>
<path d="M1.05318 7.39478H0V8.44796H1.05318V7.39478Z" fill="#1B0003"/>
<path d="M1.05318 6.34009H0V7.39327H1.05318V6.34009Z" fill="#1B0003"/>
<path d="M1.05318 5.28711H0V6.34029H1.05318V5.28711Z" fill="#1B0003"/>
<path d="M1.05318 4.23633H0V5.28951H1.05318V4.23633Z" fill="#1B0003"/>
<path d="M1.05318 3.18359H0V4.23678H1.05318V3.18359Z" fill="#1B0003"/>
<path d="M1.05318 2.12891H0V3.18209H1.05318V2.12891Z" fill="#1B0003"/>
<path d="M1.05318 1.07812H0V2.13131H1.05318V1.07812Z" fill="#1B0003"/>
<path d="M1.05318 0.0253906H0V1.07857H1.05318V0.0253906Z" fill="#1B0003"/>
</svg>
