<svg width="19" height="19" viewBox="0 0 19 19" fill="none" xmlns="http://www.w3.org/2000/svg">
<path d="M19.0004 14.2207H17.9443V15.2768H19.0004V14.2207Z" fill="#27937B"/>
<path d="M19.0004 13.1638H17.9443V14.2199H19.0004V13.1638Z" fill="#27937B"/>
<path d="M19.0004 12.1111H17.9443V13.1672H19.0004V12.1111Z" fill="#1B0003"/>
<path d="M19.0004 11.0544H17.9443V12.1105H19.0004V11.0544Z" fill="#1B0003"/>
<path d="M19.0004 9.99805H17.9443V11.0541H19.0004V9.99805Z" fill="#1B0003"/>
<path d="M19.0004 8.94312H17.9443V9.99918H19.0004V8.94312Z" fill="#1B0003"/>
<path d="M19.0004 7.88843H17.9443V8.9445H19.0004V7.88843Z" fill="#1B0003"/>
<path d="M19.0004 6.83179H17.9443V7.88785H19.0004V6.83179Z" fill="#1B0003"/>
<path d="M19.0004 5.7771H17.9443V6.83317H19.0004V5.7771Z" fill="#1B0003"/>
<path d="M19.0004 4.72046H17.9443V5.77653H19.0004V4.72046Z" fill="#1B0003"/>
<path d="M19.0004 3.66577H17.9443V4.72184H19.0004V3.66577Z" fill="#1B0003"/>
<path d="M17.9447 15.2771H16.8887V16.3332H17.9447V15.2771Z" fill="#1B0003"/>
<path d="M17.9447 14.2205H16.8887V15.2765H17.9447V14.2205Z" fill="#A0E84D"/>
<path d="M17.9447 13.1638H16.8887V14.2199H17.9447V13.1638Z" fill="#67CE3C"/>
<path d="M17.9447 12.1111H16.8887V13.1672H17.9447V12.1111Z" fill="#67CE3C"/>
<path d="M17.9447 11.0544H16.8887V12.1105H17.9447V11.0544Z" fill="#A0E84D"/>
<path d="M17.9447 9.9978H16.8887V11.0539H17.9447V9.9978Z" fill="#A0E84D"/>
<path d="M17.9447 8.94312H16.8887V9.99918H17.9447V8.94312Z" fill="#CCF45F"/>
<path d="M17.9447 7.88843H16.8887V8.9445H17.9447V7.88843Z" fill="#CCF45F"/>
<path d="M17.9447 6.83179H16.8887V7.88785H17.9447V6.83179Z" fill="#CCF45F"/>
<path d="M17.9447 5.7771H16.8887V6.83317H17.9447V5.7771Z" fill="#CCF45F"/>
<path d="M17.9447 4.72046H16.8887V5.77653H17.9447V4.72046Z" fill="#CCF45F"/>
<path d="M17.9447 3.66577H16.8887V4.72184H17.9447V3.66577Z" fill="#CCF45F"/>
<path d="M17.9447 2.60913H16.8887V3.6652H17.9447V2.60913Z" fill="#1B0003"/>
<path d="M16.8881 16.3318H15.832V17.3879H16.8881V16.3318Z" fill="#1B0003"/>
<path d="M16.8881 15.2771H15.832V16.3332H16.8881V15.2771Z" fill="#67CE3C"/>
<path d="M16.8881 14.2205H15.832V15.2765H16.8881V14.2205Z" fill="#27937B"/>
<path d="M16.8881 13.1638H15.832V14.2199H16.8881V13.1638Z" fill="#27937B"/>
<path d="M16.8881 12.1111H15.832V13.1672H16.8881V12.1111Z" fill="#67CE3C"/>
<path d="M16.8881 11.0544H15.832V12.1105H16.8881V11.0544Z" fill="#67CE3C"/>
<path d="M16.8881 9.9978H15.832V11.0539H16.8881V9.9978Z" fill="#A0E84D"/>
<path d="M16.8881 8.94312H15.832V9.99918H16.8881V8.94312Z" fill="#A0E84D"/>
<path d="M16.8881 7.88843H15.832V8.9445H16.8881V7.88843Z" fill="#A0E84D"/>
<path d="M16.8881 6.83179H15.832V7.88785H16.8881V6.83179Z" fill="#A0E84D"/>
<path d="M16.8881 5.7771H15.832V6.83317H16.8881V5.7771Z" fill="#A0E84D"/>
<path d="M16.8881 4.72046H15.832V5.77653H16.8881V4.72046Z" fill="#A0E84D"/>
<path d="M16.8881 3.66577H15.832V4.72184H16.8881V3.66577Z" fill="#A0E84D"/>
<path d="M16.8881 2.60913H15.832V3.6652H16.8881V2.60913Z" fill="#CCF45F"/>
<path d="M16.8881 1.5564H15.832V2.61246H16.8881V1.5564Z" fill="#1B0003"/>
<path d="M15.8334 17.3884H14.7773V18.4445H15.8334V17.3884Z" fill="#27937B"/>
<path d="M15.8334 16.3318H14.7773V17.3879H15.8334V16.3318Z" fill="#67CE3C"/>
<path d="M15.8334 15.2771H14.7773V16.3332H15.8334V15.2771Z" fill="#67CE3C"/>
<path d="M15.8334 14.2207H14.7773V15.2768H15.8334V14.2207Z" fill="#27937B"/>
<path d="M15.8334 13.1638H14.7773V14.2199H15.8334V13.1638Z" fill="#27937B"/>
<path d="M15.8334 12.1111H14.7773V13.1672H15.8334V12.1111Z" fill="#27937B"/>
<path d="M15.8334 11.0544H14.7773V12.1105H15.8334V11.0544Z" fill="#27937B"/>
<path d="M15.8334 9.99805H14.7773V11.0541H15.8334V9.99805Z" fill="#27937B"/>
<path d="M15.8334 8.94312H14.7773V9.99918H15.8334V8.94312Z" fill="#27937B"/>
<path d="M15.8334 7.88843H14.7773V8.9445H15.8334V7.88843Z" fill="#67CE3C"/>
<path d="M15.8334 6.83179H14.7773V7.88785H15.8334V6.83179Z" fill="#67CE3C"/>
<path d="M15.8334 5.7771H14.7773V6.83317H15.8334V5.7771Z" fill="#67CE3C"/>
<path d="M15.8334 4.72046H14.7773V5.77653H15.8334V4.72046Z" fill="#67CE3C"/>
<path d="M15.8334 3.66577H14.7773V4.72184H15.8334V3.66577Z" fill="#CCF45F"/>
<path d="M15.8334 2.60913H14.7773V3.6652H15.8334V2.60913Z" fill="#CCF45F"/>
<path d="M15.8334 1.5564H14.7773V2.61246H15.8334V1.5564Z" fill="#CCF45F"/>
<path d="M15.8334 0.499512H14.7773V1.55558H15.8334V0.499512Z" fill="#1B0003"/>
<path d="M14.7777 17.3884H13.7217V18.4445H14.7777V17.3884Z" fill="#1B0003"/>
<path d="M14.7777 16.3318H13.7217V17.3879H14.7777V16.3318Z" fill="#67CE3C"/>
<path d="M14.7777 15.2771H13.7217V16.3332H14.7777V15.2771Z" fill="#27937B"/>
<path d="M14.7777 14.2205H13.7217V15.2765H14.7777V14.2205Z" fill="#27937B"/>
<path d="M14.7777 13.1638H13.7217V14.2199H14.7777V13.1638Z" fill="#67CE3C"/>
<path d="M14.7777 12.1111H13.7217V13.1672H14.7777V12.1111Z" fill="#CCF45F"/>
<path d="M14.7777 11.0544H13.7217V12.1105H14.7777V11.0544Z" fill="#CCF45F"/>
<path d="M14.7777 9.9978H13.7217V11.0539H14.7777V9.9978Z" fill="#CCF45F"/>
<path d="M14.7777 8.94312H13.7217V9.99918H14.7777V8.94312Z" fill="#CCF45F"/>
<path d="M14.7777 7.88843H13.7217V8.9445H14.7777V7.88843Z" fill="#CCF45F"/>
<path d="M14.7777 6.83179H13.7217V7.88785H14.7777V6.83179Z" fill="#CCF45F"/>
<path d="M14.7777 5.7771H13.7217V6.83317H14.7777V5.7771Z" fill="#CCF45F"/>
<path d="M14.7777 4.72046H13.7217V5.77653H14.7777V4.72046Z" fill="#CCF45F"/>
<path d="M14.7777 3.66577H13.7217V4.72184H14.7777V3.66577Z" fill="#67CE3C"/>
<path d="M14.7777 2.60913H13.7217V3.6652H14.7777V2.60913Z" fill="#CCF45F"/>
<path d="M14.7777 1.5564H13.7217V2.61246H14.7777V1.5564Z" fill="#CCF45F"/>
<path d="M14.7777 0.499756H13.7217V1.55582H14.7777V0.499756Z" fill="#1B0003"/>
<path d="M13.7221 17.3884H12.666V18.4445H13.7221V17.3884Z" fill="#27937B"/>
<path d="M13.7221 16.3318H12.666V17.3879H13.7221V16.3318Z" fill="#67CE3C"/>
<path d="M13.7221 15.2771H12.666V16.3332H13.7221V15.2771Z" fill="#27937B"/>
<path d="M13.7221 14.2207H12.666V15.2768H13.7221V14.2207Z" fill="#67CE3C"/>
<path d="M13.7221 13.1638H12.666V14.2199H13.7221V13.1638Z" fill="#CCF45F"/>
<path d="M13.7221 12.1111H12.666V13.1672H13.7221V12.1111Z" fill="#CCF45F"/>
<path d="M13.7221 11.0544H12.666V12.1105H13.7221V11.0544Z" fill="#A0E84D"/>
<path d="M13.7221 9.99805H12.666V11.0541H13.7221V9.99805Z" fill="#A0E84D"/>
<path d="M13.7221 8.94312H12.666V9.99918H13.7221V8.94312Z" fill="#A0E84D"/>
<path d="M13.7221 7.88843H12.666V8.9445H13.7221V7.88843Z" fill="#A0E84D"/>
<path d="M13.7221 6.83179H12.666V7.88785H13.7221V6.83179Z" fill="#CCF45F"/>
<path d="M13.7221 5.7771H12.666V6.83317H13.7221V5.7771Z" fill="#CCF45F"/>
<path d="M13.7221 4.72046H12.666V5.77653H13.7221V4.72046Z" fill="#F7F7C1"/>
<path d="M13.7221 3.66577H12.666V4.72184H13.7221V3.66577Z" fill="#67CE3C"/>
<path d="M13.7221 2.60913H12.666V3.6652H13.7221V2.60913Z" fill="#CCF45F"/>
<path d="M13.7221 1.5564H12.666V2.61246H13.7221V1.5564Z" fill="#CCF45F"/>
<path d="M13.7221 0.499512H12.666V1.55558H13.7221V0.499512Z" fill="#1B0003"/>
<path d="M12.6674 17.3884H11.6113V18.4445H12.6674V17.3884Z" fill="#1B0003"/>
<path d="M12.6674 16.3318H11.6113V17.3879H12.6674V16.3318Z" fill="#67CE3C"/>
<path d="M12.6674 15.2771H11.6113V16.3332H12.6674V15.2771Z" fill="#67CE3C"/>
<path d="M12.6674 14.2205H11.6113V15.2765H12.6674V14.2205Z" fill="#67CE3C"/>
<path d="M12.6674 13.1638H11.6113V14.2199H12.6674V13.1638Z" fill="#CCF45F"/>
<path d="M12.6674 12.1111H11.6113V13.1672H12.6674V12.1111Z" fill="#A0E84D"/>
<path d="M12.6674 11.0544H11.6113V12.1105H12.6674V11.0544Z" fill="#A0E84D"/>
<path d="M12.6674 9.9978H11.6113V11.0539H12.6674V9.9978Z" fill="#A0E84D"/>
<path d="M12.6674 8.94312H11.6113V9.99918H12.6674V8.94312Z" fill="#A0E84D"/>
<path d="M12.6674 7.88843H11.6113V8.9445H12.6674V7.88843Z" fill="#A0E84D"/>
<path d="M12.6674 6.83179H11.6113V7.88785H12.6674V6.83179Z" fill="#CCF45F"/>
<path d="M12.6674 5.7771H11.6113V6.83317H12.6674V5.7771Z" fill="#CCF45F"/>
<path d="M12.6674 4.72046H11.6113V5.77653H12.6674V4.72046Z" fill="#F7F7C1"/>
<path d="M12.6674 3.66577H11.6113V4.72184H12.6674V3.66577Z" fill="#A0E84D"/>
<path d="M12.6674 2.60913H11.6113V3.6652H12.6674V2.60913Z" fill="#CCF45F"/>
<path d="M12.6674 1.5564H11.6113V2.61246H12.6674V1.5564Z" fill="#CCF45F"/>
<path d="M12.6674 0.499756H11.6113V1.55582H12.6674V0.499756Z" fill="#1B0003"/>
<path d="M11.6117 17.3884H10.5557V18.4445H11.6117V17.3884Z" fill="#1B0003"/>
<path d="M11.6117 16.3318H10.5557V17.3879H11.6117V16.3318Z" fill="#67CE3C"/>
<path d="M11.6117 15.2771H10.5557V16.3332H11.6117V15.2771Z" fill="#67CE3C"/>
<path d="M11.6117 14.2205H10.5557V15.2765H11.6117V14.2205Z" fill="#67CE3C"/>
<path d="M11.6117 13.1638H10.5557V14.2199H11.6117V13.1638Z" fill="#CCF45F"/>
<path d="M11.6117 12.1111H10.5557V13.1672H11.6117V12.1111Z" fill="#A0E84D"/>
<path d="M11.6117 11.0544H10.5557V12.1105H11.6117V11.0544Z" fill="#A0E84D"/>
<path d="M11.6117 9.9978H10.5557V11.0539H11.6117V9.9978Z" fill="#A0E84D"/>
<path d="M11.6117 8.94312H10.5557V9.99918H11.6117V8.94312Z" fill="#A0E84D"/>
<path d="M11.6117 7.88843H10.5557V8.9445H11.6117V7.88843Z" fill="#A0E84D"/>
<path d="M11.6117 6.83179H10.5557V7.88785H11.6117V6.83179Z" fill="#CCF45F"/>
<path d="M11.6117 5.7771H10.5557V6.83317H11.6117V5.7771Z" fill="#CCF45F"/>
<path d="M11.6117 4.72046H10.5557V5.77653H11.6117V4.72046Z" fill="#F7F7C1"/>
<path d="M11.6117 3.66577H10.5557V4.72184H11.6117V3.66577Z" fill="#A0E84D"/>
<path d="M11.6117 2.60913H10.5557V3.6652H11.6117V2.60913Z" fill="#CCF45F"/>
<path d="M11.6117 1.5564H10.5557V2.61246H11.6117V1.5564Z" fill="#CCF45F"/>
<path d="M11.6117 0.499756H10.5557V1.55582H11.6117V0.499756Z" fill="#1B0003"/>
<path d="M10.5551 17.3884H9.49902V18.4445H10.5551V17.3884Z" fill="#1B0003"/>
<path d="M10.5551 16.3318H9.49902V17.3879H10.5551V16.3318Z" fill="#67CE3C"/>
<path d="M10.5551 15.2771H9.49902V16.3332H10.5551V15.2771Z" fill="#67CE3C"/>
<path d="M10.5551 14.2205H9.49902V15.2765H10.5551V14.2205Z" fill="#67CE3C"/>
<path d="M10.5551 13.1638H9.49902V14.2199H10.5551V13.1638Z" fill="#CCF45F"/>
<path d="M10.5551 12.1111H9.49902V13.1672H10.5551V12.1111Z" fill="#A0E84D"/>
<path d="M10.5551 11.0544H9.49902V12.1105H10.5551V11.0544Z" fill="#A0E84D"/>
<path d="M10.5551 9.9978H9.49902V11.0539H10.5551V9.9978Z" fill="#A0E84D"/>
<path d="M10.5551 8.94312H9.49902V9.99918H10.5551V8.94312Z" fill="#A0E84D"/>
<path d="M10.5551 7.88843H9.49902V8.9445H10.5551V7.88843Z" fill="#CCF45F"/>
<path d="M10.5551 6.83179H9.49902V7.88785H10.5551V6.83179Z" fill="#CCF45F"/>
<path d="M10.5551 5.7771H9.49902V6.83317H10.5551V5.7771Z" fill="#CCF45F"/>
<path d="M10.5551 4.72046H9.49902V5.77653H10.5551V4.72046Z" fill="#F7F7C1"/>
<path d="M10.5551 3.66577H9.49902V4.72184H10.5551V3.66577Z" fill="#A0E84D"/>
<path d="M10.5551 2.60913H9.49902V3.6652H10.5551V2.60913Z" fill="#F2FEFE"/>
<path d="M10.5551 1.5564H9.49902V2.61246H10.5551V1.5564Z" fill="#CCF45F"/>
<path d="M10.5551 0.499756H9.49902V1.55582H10.5551V0.499756Z" fill="#1B0003"/>
<path d="M9.50138 17.3884H8.44531V18.4445H9.50138V17.3884Z" fill="#1B0003"/>
<path d="M9.50138 16.3318H8.44531V17.3879H9.50138V16.3318Z" fill="#A0E84D"/>
<path d="M9.50138 15.2771H8.44531V16.3332H9.50138V15.2771Z" fill="#67CE3C"/>
<path d="M9.50138 14.2207H8.44531V15.2768H9.50138V14.2207Z" fill="#67CE3C"/>
<path d="M9.50138 13.1638H8.44531V14.2199H9.50138V13.1638Z" fill="#CCF45F"/>
<path d="M9.50138 12.1111H8.44531V13.1672H9.50138V12.1111Z" fill="#A0E84D"/>
<path d="M9.50138 11.0544H8.44531V12.1105H9.50138V11.0544Z" fill="#A0E84D"/>
<path d="M9.50138 9.99805H8.44531V11.0541H9.50138V9.99805Z" fill="#A0E84D"/>
<path d="M9.50138 8.94312H8.44531V9.99918H9.50138V8.94312Z" fill="#CCF45F"/>
<path d="M9.50138 7.88843H8.44531V8.9445H9.50138V7.88843Z" fill="#CCF45F"/>
<path d="M9.50138 6.83179H8.44531V7.88785H9.50138V6.83179Z" fill="#CCF45F"/>
<path d="M9.50138 5.7771H8.44531V6.83317H9.50138V5.7771Z" fill="#CCF45F"/>
<path d="M9.50138 4.72046H8.44531V5.77653H9.50138V4.72046Z" fill="#F7F7C1"/>
<path d="M9.50138 3.66577H8.44531V4.72184H9.50138V3.66577Z" fill="#A0E84D"/>
<path d="M9.50138 2.60913H8.44531V3.6652H9.50138V2.60913Z" fill="#CCF45F"/>
<path d="M9.50138 1.5564H8.44531V2.61246H9.50138V1.5564Z" fill="#CCF45F"/>
<path d="M9.50138 0.499512H8.44531V1.55558H9.50138V0.499512Z" fill="#1B0003"/>
<path d="M8.44474 17.3884H7.38867V18.4445H8.44474V17.3884Z" fill="#1B0003"/>
<path d="M8.44474 16.3318H7.38867V17.3879H8.44474V16.3318Z" fill="#A0E84D"/>
<path d="M8.44474 15.2771H7.38867V16.3332H8.44474V15.2771Z" fill="#A0E84D"/>
<path d="M8.44474 14.2205H7.38867V15.2765H8.44474V14.2205Z" fill="#67CE3C"/>
<path d="M8.44474 13.1638H7.38867V14.2199H8.44474V13.1638Z" fill="#CCF45F"/>
<path d="M8.44474 12.1111H7.38867V13.1672H8.44474V12.1111Z" fill="#CCF45F"/>
<path d="M8.44474 11.0544H7.38867V12.1105H8.44474V11.0544Z" fill="#A0E84D"/>
<path d="M8.44474 9.9978H7.38867V11.0539H8.44474V9.9978Z" fill="#CCF45F"/>
<path d="M8.44474 8.94312H7.38867V9.99918H8.44474V8.94312Z" fill="#CCF45F"/>
<path d="M8.44474 7.88843H7.38867V8.9445H8.44474V7.88843Z" fill="#CCF45F"/>
<path d="M8.44474 6.83179H7.38867V7.88785H8.44474V6.83179Z" fill="#CCF45F"/>
<path d="M8.44474 5.7771H7.38867V6.83317H8.44474V5.7771Z" fill="#CCF45F"/>
<path d="M8.44474 4.72046H7.38867V5.77653H8.44474V4.72046Z" fill="#F7F7C1"/>
<path d="M8.44474 3.66577H7.38867V4.72184H8.44474V3.66577Z" fill="#A0E84D"/>
<path d="M8.44474 2.60913H7.38867V3.6652H8.44474V2.60913Z" fill="#F7F7C1"/>
<path d="M8.44474 1.5564H7.38867V2.61246H8.44474V1.5564Z" fill="#CCF45F"/>
<path d="M8.44474 0.499756H7.38867V1.55582H8.44474V0.499756Z" fill="#1B0003"/>
<path d="M7.38908 17.3884H6.33301V18.4445H7.38908V17.3884Z" fill="#1B0003"/>
<path d="M7.38908 16.3318H6.33301V17.3879H7.38908V16.3318Z" fill="#A0E84D"/>
<path d="M7.38908 15.2771H6.33301V16.3332H7.38908V15.2771Z" fill="#A0E84D"/>
<path d="M7.38908 14.2205H6.33301V15.2765H7.38908V14.2205Z" fill="#67CE3C"/>
<path d="M7.38908 13.1638H6.33301V14.2199H7.38908V13.1638Z" fill="#CCF45F"/>
<path d="M7.38908 12.1111H6.33301V13.1672H7.38908V12.1111Z" fill="#CCF45F"/>
<path d="M7.38908 11.0544H6.33301V12.1105H7.38908V11.0544Z" fill="#CCF45F"/>
<path d="M7.38908 9.9978H6.33301V11.0539H7.38908V9.9978Z" fill="#CCF45F"/>
<path d="M7.38908 8.94312H6.33301V9.99918H7.38908V8.94312Z" fill="#CCF45F"/>
<path d="M7.38908 7.88843H6.33301V8.9445H7.38908V7.88843Z" fill="#CCF45F"/>
<path d="M7.38908 6.83179H6.33301V7.88785H7.38908V6.83179Z" fill="#CCF45F"/>
<path d="M7.38908 5.7771H6.33301V6.83317H7.38908V5.7771Z" fill="#F7F7C1"/>
<path d="M7.38908 4.72046H6.33301V5.77653H7.38908V4.72046Z" fill="#F2FEFE"/>
<path d="M7.38908 3.66577H6.33301V4.72184H7.38908V3.66577Z" fill="#A0E84D"/>
<path d="M7.38908 2.60913H6.33301V3.6652H7.38908V2.60913Z" fill="#F2FEFE"/>
<path d="M7.38908 1.5564H6.33301V2.61246H7.38908V1.5564Z" fill="#F7F7C1"/>
<path d="M7.38908 0.499756H6.33301V1.55582H7.38908V0.499756Z" fill="#1B0003"/>
<path d="M6.33439 17.3884H5.27832V18.4445H6.33439V17.3884Z" fill="#1B0003"/>
<path d="M6.33439 16.3318H5.27832V17.3879H6.33439V16.3318Z" fill="#A0E84D"/>
<path d="M6.33439 15.2771H5.27832V16.3332H6.33439V15.2771Z" fill="#A0E84D"/>
<path d="M6.33439 14.2205H5.27832V15.2765H6.33439V14.2205Z" fill="#67CE3C"/>
<path d="M6.33439 13.1638H5.27832V14.2199H6.33439V13.1638Z" fill="#CCF45F"/>
<path d="M6.33439 12.1111H5.27832V13.1672H6.33439V12.1111Z" fill="#CCF45F"/>
<path d="M6.33439 11.0544H5.27832V12.1105H6.33439V11.0544Z" fill="#CCF45F"/>
<path d="M6.33439 9.9978H5.27832V11.0539H6.33439V9.9978Z" fill="#CCF45F"/>
<path d="M6.33439 8.94312H5.27832V9.99918H6.33439V8.94312Z" fill="#CCF45F"/>
<path d="M6.33439 7.88843H5.27832V8.9445H6.33439V7.88843Z" fill="#CCF45F"/>
<path d="M6.33439 6.83179H5.27832V7.88785H6.33439V6.83179Z" fill="#F7F7C1"/>
<path d="M6.33439 5.7771H5.27832V6.83317H6.33439V5.7771Z" fill="#F2FEFE"/>
<path d="M6.33439 4.72046H5.27832V5.77653H6.33439V4.72046Z" fill="#F7F7C1"/>
<path d="M6.33439 3.66577H5.27832V4.72184H6.33439V3.66577Z" fill="#A0E84D"/>
<path d="M6.33439 2.60913H5.27832V3.6652H6.33439V2.60913Z" fill="#F2FEFE"/>
<path d="M6.33439 1.5564H5.27832V2.61246H6.33439V1.5564Z" fill="#F7F7C1"/>
<path d="M6.33439 0.499756H5.27832V1.55582H6.33439V0.499756Z" fill="#27937B"/>
<path d="M5.27872 17.3884H4.22266V18.4445H5.27872V17.3884Z" fill="#1B0003"/>
<path d="M5.27872 16.3318H4.22266V17.3879H5.27872V16.3318Z" fill="#A0E84D"/>
<path d="M5.27872 15.2771H4.22266V16.3332H5.27872V15.2771Z" fill="#CCF45F"/>
<path d="M5.27872 14.2205H4.22266V15.2765H5.27872V14.2205Z" fill="#67CE3C"/>
<path d="M5.27872 13.1638H4.22266V14.2199H5.27872V13.1638Z" fill="#67CE3C"/>
<path d="M5.27872 12.1111H4.22266V13.1672H5.27872V12.1111Z" fill="#F7F7C1"/>
<path d="M5.27872 11.0544H4.22266V12.1105H5.27872V11.0544Z" fill="#F7F7C1"/>
<path d="M5.27872 9.9978H4.22266V11.0539H5.27872V9.9978Z" fill="#F7F7C1"/>
<path d="M5.27872 8.94312H4.22266V9.99918H5.27872V8.94312Z" fill="#F2FEFE"/>
<path d="M5.27872 7.88843H4.22266V8.9445H5.27872V7.88843Z" fill="#F7F7C1"/>
<path d="M5.27872 6.83179H4.22266V7.88785H5.27872V6.83179Z" fill="#F2FEFE"/>
<path d="M5.27872 5.7771H4.22266V6.83317H5.27872V5.7771Z" fill="#F2FEFE"/>
<path d="M5.27872 4.72046H4.22266V5.77653H5.27872V4.72046Z" fill="#A0E84D"/>
<path d="M5.27872 3.66577H4.22266V4.72184H5.27872V3.66577Z" fill="#A0E84D"/>
<path d="M5.27872 2.60913H4.22266V3.6652H5.27872V2.60913Z" fill="#F2FEFE"/>
<path d="M5.27872 1.5564H4.22266V2.61246H5.27872V1.5564Z" fill="#F7F7C1"/>
<path d="M5.27872 0.499756H4.22266V1.55582H5.27872V0.499756Z" fill="#67CE3C"/>
<path d="M4.22208 17.3884H3.16602V18.4445H4.22208V17.3884Z" fill="#1B0003"/>
<path d="M4.22208 16.3318H3.16602V17.3879H4.22208V16.3318Z" fill="#CCF45F"/>
<path d="M4.22208 15.2771H3.16602V16.3332H4.22208V15.2771Z" fill="#CCF45F"/>
<path d="M4.22208 14.2205H3.16602V15.2765H4.22208V14.2205Z" fill="#CCF45F"/>
<path d="M4.22208 13.1638H3.16602V14.2199H4.22208V13.1638Z" fill="#67CE3C"/>
<path d="M4.22208 12.1111H3.16602V13.1672H4.22208V12.1111Z" fill="#67CE3C"/>
<path d="M4.22208 11.0544H3.16602V12.1105H4.22208V11.0544Z" fill="#A0E84D"/>
<path d="M4.22208 9.9978H3.16602V11.0539H4.22208V9.9978Z" fill="#A0E84D"/>
<path d="M4.22208 8.94312H3.16602V9.99918H4.22208V8.94312Z" fill="#A0E84D"/>
<path d="M4.22208 7.88843H3.16602V8.9445H4.22208V7.88843Z" fill="#A0E84D"/>
<path d="M4.22208 6.83179H3.16602V7.88785H4.22208V6.83179Z" fill="#A0E84D"/>
<path d="M4.22208 5.7771H3.16602V6.83317H4.22208V5.7771Z" fill="#A0E84D"/>
<path d="M4.22208 4.72046H3.16602V5.77653H4.22208V4.72046Z" fill="#A0E84D"/>
<path d="M4.22208 3.66577H3.16602V4.72184H4.22208V3.66577Z" fill="#F2FEFE"/>
<path d="M4.22208 2.60913H3.16602V3.6652H4.22208V2.60913Z" fill="#F7F7C1"/>
<path d="M4.22208 1.5564H3.16602V2.61246H4.22208V1.5564Z" fill="#CCF45F"/>
<path d="M4.22208 0.499756H3.16602V1.55582H4.22208V0.499756Z" fill="#67CE3C"/>
<path d="M3.16642 16.3318H2.11035V17.3879H3.16642V16.3318Z" fill="#1B0003"/>
<path d="M3.16642 15.2771H2.11035V16.3332H3.16642V15.2771Z" fill="#CCF45F"/>
<path d="M3.16642 14.2207H2.11035V15.2768H3.16642V14.2207Z" fill="#CCF45F"/>
<path d="M3.16642 13.1638H2.11035V14.2199H3.16642V13.1638Z" fill="#CCF45F"/>
<path d="M3.16642 12.1111H2.11035V13.1672H3.16642V12.1111Z" fill="#CCF45F"/>
<path d="M3.16642 11.0544H2.11035V12.1105H3.16642V11.0544Z" fill="#CCF45F"/>
<path d="M3.16642 9.99805H2.11035V11.0541H3.16642V9.99805Z" fill="#F7F7C1"/>
<path d="M3.16642 8.94312H2.11035V9.99918H3.16642V8.94312Z" fill="#F7F7C1"/>
<path d="M3.16642 7.88843H2.11035V8.9445H3.16642V7.88843Z" fill="#F7F7C1"/>
<path d="M3.16642 6.83179H2.11035V7.88785H3.16642V6.83179Z" fill="#F2FEFE"/>
<path d="M3.16642 5.7771H2.11035V6.83317H3.16642V5.7771Z" fill="#F7F7C1"/>
<path d="M3.16642 4.72046H2.11035V5.77653H3.16642V4.72046Z" fill="#F2FEFE"/>
<path d="M3.16642 3.66577H2.11035V4.72184H3.16642V3.66577Z" fill="#F7F7C1"/>
<path d="M3.16642 2.60913H2.11035V3.6652H3.16642V2.60913Z" fill="#CCF45F"/>
<path d="M3.16642 1.5564H2.11035V2.61246H3.16642V1.5564Z" fill="#67CE3C"/>
<path d="M2.11271 15.2771H1.05664V16.3332H2.11271V15.2771Z" fill="#1B0003"/>
<path d="M2.11271 14.2207H1.05664V15.2768H2.11271V14.2207Z" fill="#CCF45F"/>
<path d="M2.11271 13.1638H1.05664V14.2199H2.11271V13.1638Z" fill="#CCF45F"/>
<path d="M2.11271 12.1111H1.05664V13.1672H2.11271V12.1111Z" fill="#CCF45F"/>
<path d="M2.11271 11.0544H1.05664V12.1105H2.11271V11.0544Z" fill="#CCF45F"/>
<path d="M2.11271 9.99805H1.05664V11.0541H2.11271V9.99805Z" fill="#CCF45F"/>
<path d="M2.11271 8.94312H1.05664V9.99918H2.11271V8.94312Z" fill="#CCF45F"/>
<path d="M2.11271 7.88843H1.05664V8.9445H2.11271V7.88843Z" fill="#CCF45F"/>
<path d="M2.11271 6.83179H1.05664V7.88785H2.11271V6.83179Z" fill="#F7F7C1"/>
<path d="M2.11271 5.7771H1.05664V6.83317H2.11271V5.7771Z" fill="#F7F7C1"/>
<path d="M2.11271 4.72046H1.05664V5.77653H2.11271V4.72046Z" fill="#F7F7C1"/>
<path d="M2.11271 3.66577H1.05664V4.72184H2.11271V3.66577Z" fill="#CCF45F"/>
<path d="M2.11271 2.60913H1.05664V3.6652H2.11271V2.60913Z" fill="#67CE3C"/>
<path d="M1.05607 14.2207H0V15.2768H1.05607V14.2207Z" fill="#1B0003"/>
<path d="M1.05607 13.1638H0V14.2199H1.05607V13.1638Z" fill="#1B0003"/>
<path d="M1.05607 12.1111H0V13.1672H1.05607V12.1111Z" fill="#1B0003"/>
<path d="M1.05607 11.0544H0V12.1105H1.05607V11.0544Z" fill="#1B0003"/>
<path d="M1.05607 9.99805H0V11.0541H1.05607V9.99805Z" fill="#1B0003"/>
<path d="M1.05607 8.94312H0V9.99918H1.05607V8.94312Z" fill="#1B0003"/>
<path d="M1.05607 7.88843H0V8.9445H1.05607V7.88843Z" fill="#1B0003"/>
<path d="M1.05607 6.83179H0V7.88785H1.05607V6.83179Z" fill="#1B0003"/>
<path d="M1.05607 5.7771H0V6.83317H1.05607V5.7771Z" fill="#27937B"/>
<path d="M1.05607 4.72046H0V5.77653H1.05607V4.72046Z" fill="#67CE3C"/>
<path d="M1.05607 3.66577H0V4.72184H1.05607V3.66577Z" fill="#67CE3C"/>
</svg>
